<?xml version="1.0" standalone="no"?>
<!DOCTYPE svg PUBLIC "-//W3C//DTD SVG 20010904//EN"
 "http://www.w3.org/TR/2001/REC-SVG-20010904/DTD/svg10.dtd">
<svg version="1.0" xmlns="http://www.w3.org/2000/svg"
 width="500.000000pt" height="500.000000pt" viewBox="0 0 1163.000000 777.000000"
 preserveAspectRatio="xMidYMid meet">

<g transform="translate(0.000000,777.000000) scale(0.100000,-0.100000)"
fill="#ffd615" stroke="none">
<path d="M7 7763 c-4 -3 -7 -1749 -7 -3880 l0 -3873 5815 0 5815 0 -2 3877 -3
3878 -5806 3 c-3193 1 -5809 -1 -5812 -5z m11593 -3878 l0 -3855 -5785 0
-5785 0 0 3855 0 3855 5785 0 5785 0 0 -3855z"/>
<path d="M5613 7492 c-8 -5 -13 -47 -15 -127 l-3 -120 -125 -5 -125 -5 0 -25
0 -25 128 -3 127 -3 0 -209 0 -209 -54 -153 c-29 -84 -131 -371 -226 -638
-283 -796 -320 -902 -320 -911 0 -5 284 -9 631 -9 597 0 631 1 624 18 -4 9
-139 390 -301 845 l-294 828 0 219 0 220 124 0 c116 0 125 1 131 20 3 11 3 24
0 30 -4 6 -58 10 -131 10 l-124 0 0 118 c0 129 -10 158 -47 134z"/>
<path d="M5120 4194 l0 -806 33 20 c389 240 444 272 472 272 30 0 75 -25 373
-208 l132 -81 0 804 0 805 -505 0 -505 0 0 -806z m616 641 c25 -15 58 -45 75
-67 52 -73 59 -117 59 -375 l0 -233 -246 0 -246 0 4 248 c3 229 5 250 25 295
70 152 204 205 329 132z"/>
<path d="M5555 4816 c-47 -20 -102 -89 -119 -147 -12 -40 -16 -102 -16 -261
l0 -208 208 0 207 0 -5 232 c-4 149 -10 243 -18 261 -48 111 -161 165 -257
123z m118 -51 c18 -8 43 -31 56 -50 44 -65 50 -99 51 -291 l0 -181 -77 -6
c-43 -3 -112 -5 -153 -4 l-75 2 -3 170 c-3 195 14 278 65 327 49 47 88 56 136
33z"/>
<path d="M5605 3632 c-10 -2 -170 -97 -355 -210 -184 -113 -432 -265 -550
-337 -118 -73 -345 -212 -505 -309 -159 -98 -298 -187 -307 -198 -26 -29 -23
-81 6 -114 35 -42 76 -38 166 17 41 25 203 125 360 221 387 237 1082 663 1151
705 l56 34 534 -327 c294 -180 662 -406 819 -502 312 -192 328 -199 377 -149
35 34 36 90 1 122 -12 12 -185 121 -383 242 -198 121 -571 350 -828 508 -258
158 -480 290 -495 294 -15 4 -36 5 -47 3z"/>
<path d="M5345 3224 c-148 -91 -443 -272 -655 -401 -212 -130 -441 -271 -510
-313 l-125 -77 -3 -897 -2 -896 545 0 545 0 0 589 c0 358 4 609 10 642 33 173
171 318 345 364 256 66 521 -74 596 -316 18 -57 19 -100 19 -670 l0 -609 550
0 550 0 0 894 0 893 -172 106 c-95 57 -449 274 -787 481 -338 207 -619 376
-625 376 -6 0 -132 -75 -281 -166z m245 -249 l0 -135 -135 0 -135 0 6 28 c23
97 82 173 169 214 98 46 95 49 95 -107z m146 118 c67 -23 154 -110 177 -177
27 -80 33 -76 -118 -76 l-135 0 0 135 c0 151 -4 145 76 118z m-146 -457 l0
-134 -37 10 c-113 31 -199 118 -227 231 l-6 27 135 0 135 0 0 -134z m340 116
c0 -11 -14 -47 -31 -80 -43 -86 -115 -143 -211 -166 l-28 -6 0 135 0 135 135
0 c124 0 135 -1 135 -18z m-1480 -677 l0 -145 -61 0 -62 0 7 61 c9 81 42 167
77 201 15 16 30 28 33 28 3 0 6 -65 6 -145z m111 92 c24 -40 48 -117 56 -184
l6 -53 -62 0 -61 0 0 145 c0 144 0 146 21 135 11 -6 29 -26 40 -43z m2197 -89
l-3 -143 -62 -3 c-72 -3 -70 -6 -52 92 18 98 72 196 109 196 7 0 10 -46 8
-142z m79 120 c44 -48 83 -160 83 -238 0 -30 0 -30 -60 -30 l-60 0 0 145 c0
80 4 145 8 145 5 0 18 -10 29 -22z m-2387 -443 l0 -135 -60 0 -60 0 0 135 0
135 60 0 60 0 0 -135z m170 0 l0 -135 -59 0 c-33 0 -61 4 -63 10 -1 5 -2 66 0
135 l3 125 60 0 59 0 0 -135z m2138 -2 l3 -133 -66 0 -65 0 0 135 0 136 63 -3
62 -3 3 -132z m162 2 l0 -135 -60 0 -60 0 0 135 0 135 60 0 60 0 0 -135z
m-2472 -314 l3 -131 -61 0 -60 0 0 129 c0 145 -5 137 80 135 l35 -1 3 -132z
m170 0 l3 -132 -63 3 c-35 2 -62 6 -60 11 1 4 2 61 2 126 0 134 -2 131 80 126
l35 -2 3 -132z m2140 2 l3 -133 -66 0 -65 0 0 128 c0 71 3 132 7 136 4 4 32 6
63 4 l55 -3 3 -132z m162 1 l0 -134 -60 0 -60 0 0 129 0 130 33 3 c17 2 44 4
60 5 l27 2 0 -135z m-2470 -274 l0 -90 -60 0 -60 0 0 90 0 90 60 0 60 0 0 -90z
m170 0 l0 -90 -60 0 -60 0 0 90 0 90 60 0 60 0 0 -90z m2138 3 l-3 -88 -62 -3
-63 -3 0 91 0 90 65 0 66 0 -3 -87z m162 -3 l0 -90 -60 0 -60 0 0 90 0 90 60
0 60 0 0 -90z"/>
<path d="M5525 2207 c-179 -46 -320 -200 -345 -377 -5 -36 -10 -318 -10 -627
l0 -563 45 0 45 0 0 328 c0 666 4 820 27 889 25 76 72 151 121 194 99 88 243
110 354 56 103 -51 193 -177 218 -306 6 -32 10 -273 10 -607 l0 -554 45 0 46
0 -3 613 -3 612 -23 57 c-50 123 -150 223 -271 269 -67 25 -190 33 -256 16z"/>
<path d="M4003 602 l-63 -3 0 -39 0 -40 1685 0 1685 0 0 40 0 40 -252 0 c-139
0 -869 1 -1623 3 -753 1 -1398 1 -1432 -1z"/>
<path d="M3880 450 l0 -40 1745 0 1745 0 0 40 0 40 -1745 0 -1745 0 0 -40z"/>
<path d="M3822 343 l3 -38 1803 -3 1802 -2 0 40 0 40 -1806 0 -1805 0 3 -37z"/>
</g>
</svg>
