<?xml version="1.0" standalone="no"?>
<!DOCTYPE svg PUBLIC "-//W3C//DTD SVG 20010904//EN"
 "http://www.w3.org/TR/2001/REC-SVG-20010904/DTD/svg10.dtd">
<svg version="1.0" xmlns="http://www.w3.org/2000/svg"
 width="512.000000pt" height="512.000000pt" viewBox="0 0 512.000000 512.000000"
 preserveAspectRatio="xMidYMid meet">

<g transform="translate(0.000000,512.000000) scale(0.100000,-0.100000)"
fill="#ffd615" stroke="none">
<path d="M2435 4247 c-151 -50 -276 -198 -293 -348 -27 -237 122 -439 352
-480 225 -39 446 122 487 355 30 177 -69 365 -240 448 -58 29 -75 33 -165 35
-63 2 -116 -2 -141 -10z"/>
<path d="M910 3829 c-164 -32 -303 -179 -333 -353 -31 -180 71 -368 242 -450
62 -29 73 -31 176 -31 108 0 113 1 186 37 223 110 305 374 184 591 -58 103
-173 184 -294 207 -62 12 -98 11 -161 -1z"/>
<path d="M4040 3829 c-123 -24 -245 -122 -301 -244 -104 -221 11 -486 249
-575 47 -18 74 -21 152 -18 82 3 104 7 163 35 271 129 331 483 116 688 -106
102 -239 141 -379 114z"/>
<path d="M2401 3095 c-140 -31 -290 -126 -386 -242 -70 -85 -145 -231 -124
-244 103 -66 670 -390 676 -387 129 69 673 394 673 402 0 24 -69 154 -113 212
-82 108 -209 197 -342 240 -101 33 -283 42 -384 19z"/>
<path d="M890 2693 c-296 -51 -521 -259 -584 -540 -14 -62 -16 -156 -16 -687
l0 -616 710 0 710 0 2 440 3 440 374 -225 c325 -195 381 -225 428 -231 106
-13 117 -8 515 231 l373 223 5 -437 5 -436 710 0 710 0 0 610 c0 556 -2 617
-18 688 -35 148 -132 303 -244 392 -197 154 -451 195 -681 108 -92 -34 -86
-31 -736 -413 l-596 -350 -609 359 c-336 197 -644 373 -685 390 -123 51 -270
72 -376 54z"/>
</g>
</svg>
