<?xml version="1.0" standalone="no"?>
<!DOCTYPE svg PUBLIC "-//W3C//DTD SVG 20010904//EN"
 "http://www.w3.org/TR/2001/REC-SVG-20010904/DTD/svg10.dtd">
<svg version="1.0" xmlns="http://www.w3.org/2000/svg"
 width="512.000000pt" height="512.000000pt" viewBox="0 0 512.000000 512.000000"
 preserveAspectRatio="xMidYMid meet">

<g transform="translate(0.000000,512.000000) scale(0.100000,-0.100000)"
fill="#ffd615" stroke="none">
<path d="M2511 5106 c-46 -25 -50 -48 -51 -253 l0 -193 29 -32 c24 -27 36 -33
71 -33 35 0 47 6 71 33 l29 32 0 190 c0 125 -4 198 -12 215 -22 48 -88 68
-137 41z"/>
<path d="M1426 4804 c-47 -48 -38 -83 66 -263 62 -109 101 -164 121 -176 55
-33 130 5 143 72 6 29 -5 53 -82 189 -49 86 -100 166 -113 180 -34 35 -99 34
-135 -2z"/>
<path d="M3559 4806 c-13 -14 -64 -94 -113 -180 -77 -136 -88 -160 -82 -189
13 -67 88 -105 143 -72 20 12 59 67 121 176 104 180 113 215 66 263 -36 36
-101 37 -135 2z"/>
<path d="M2247 4366 c-96 -35 -176 -121 -185 -202 -4 -36 0 -46 21 -68 45 -45
111 -47 145 -4 55 70 80 88 122 88 33 0 48 -6 72 -30 26 -26 30 -36 25 -69 -8
-64 -288 -801 -303 -801 -30 0 -112 -50 -148 -90 -21 -24 -47 -62 -58 -86 -21
-49 -218 -851 -218 -889 0 -14 13 -39 29 -57 24 -27 36 -33 70 -33 78 0 81 6
180 415 116 476 117 480 139 509 27 36 67 47 107 28 61 -29 61 -40 21 -394
-38 -329 -44 -466 -25 -524 6 -19 44 -104 85 -189 92 -194 107 -250 106 -405
0 -137 -17 -248 -66 -426 -63 -229 -105 -309 -221 -424 -250 -246 -803 -457
-1340 -511 -57 -6 -74 -12 -97 -35 -37 -37 -39 -95 -4 -136 23 -27 28 -28 103
-26 167 5 533 83 770 164 330 114 616 287 765 464 87 103 132 185 175 317 21
64 40 117 43 117 3 0 22 -53 43 -117 43 -133 88 -214 177 -319 65 -78 101 -97
155 -81 41 11 65 45 65 94 0 36 -7 49 -65 114 -82 94 -115 156 -160 305 -73
241 -102 443 -85 595 12 105 31 163 100 300 85 168 100 217 100 318 0 48 -16
230 -36 405 -40 353 -40 365 21 394 40 19 80 8 107 -28 22 -29 23 -33 139
-509 99 -409 102 -415 180 -415 34 0 46 6 70 33 16 18 29 43 29 57 0 38 -197
840 -218 889 -11 24 -37 62 -58 86 -36 40 -118 90 -148 90 -15 0 -295 737
-303 801 -5 33 -1 43 25 69 41 41 99 42 141 3 22 -21 107 -201 327 -693 556
-1244 562 -1263 584 -1830 5 -146 11 -327 13 -402 2 -128 3 -138 26 -162 20
-21 65 -35 292 -91 254 -62 271 -64 303 -51 42 17 56 42 56 94 0 67 -27 81
-269 142 l-211 52 0 112 c0 194 -19 560 -35 683 -42 317 -93 452 -579 1538
-170 381 -319 699 -338 724 -89 118 -287 147 -408 60 l-41 -30 -34 27 c-67 51
-195 69 -278 40z m417 -857 l97 -262 -39 -32 c-51 -44 -92 -123 -98 -188 -3
-29 10 -186 30 -361 50 -431 51 -422 -26 -578 -34 -71 -65 -128 -68 -128 -3 0
-34 57 -68 128 -77 156 -76 147 -26 578 20 175 33 332 30 361 -6 65 -47 144
-98 188 l-39 32 97 262 c53 143 100 261 104 261 4 0 51 -118 104 -261z"/>
<path d="M693 4052 c-40 -6 -73 -50 -73 -96 0 -56 20 -73 200 -177 109 -62
154 -83 182 -83 70 -1 117 78 85 140 -11 21 -59 54 -174 120 -161 93 -182 102
-220 96z"/>
<path d="M4385 4052 c-11 -2 -91 -45 -178 -95 -115 -66 -163 -100 -174 -121
-32 -62 15 -141 85 -140 28 0 74 22 189 88 84 48 162 99 173 113 55 70 -7 172
-95 155z"/>
<path d="M1926 3864 c-51 -52 -31 -144 37 -162 71 -19 126 22 127 94 0 58 -37
94 -95 94 -32 0 -48 -6 -69 -26z"/>
<path d="M1770 3503 c-22 -21 -69 -117 -176 -357 -368 -831 -401 -947 -424
-1491 -5 -121 -10 -270 -10 -332 0 -98 -2 -112 -17 -116 -10 -3 -105 -26 -211
-52 -224 -55 -252 -70 -252 -137 0 -52 14 -77 56 -94 33 -14 48 -11 303 51
226 56 272 70 292 91 23 24 24 34 26 162 6 301 24 673 38 772 34 239 113 459
381 1061 85 191 154 356 154 367 0 55 -48 102 -104 102 -14 0 -39 -12 -56 -27z"/>
<path d="M381 2976 c-59 -33 -67 -102 -16 -153 l34 -34 200 3 201 3 27 27 c41
41 39 100 -5 139 l-32 29 -193 0 c-140 -1 -198 -4 -216 -14z"/>
<path d="M4298 2961 c-44 -39 -46 -98 -5 -138 l27 -28 201 -3 200 -3 34 34
c38 38 44 70 21 116 -24 46 -51 51 -256 51 l-190 0 -32 -29z"/>
<path d="M3170 483 c-42 -38 -48 -79 -18 -122 57 -85 178 -51 178 49 0 88 -95
131 -160 73z"/>
<path d="M3543 335 c-12 -8 -27 -31 -33 -50 -10 -30 -9 -41 7 -73 16 -34 26
-40 102 -65 198 -67 554 -138 699 -141 69 -1 75 1 98 27 35 40 33 99 -3 136
-25 25 -40 29 -138 40 -148 17 -373 62 -523 105 -136 40 -177 44 -209 21z"/>
</g>
</svg>
