<?xml version="1.0" standalone="no"?>
<!DOCTYPE svg PUBLIC "-//W3C//DTD SVG 20010904//EN"
 "http://www.w3.org/TR/2001/REC-SVG-20010904/DTD/svg10.dtd">
<svg version="1.0" xmlns="http://www.w3.org/2000/svg"
 width="200pt" height="200pt" viewBox="0 0 894.000000 657.000000"
 preserveAspectRatio="xMidYMid meet" >

<g transform="translate(0.000000,657.000000) scale(0.100000,-0.100000)"
fill="#ffd615" stroke="none">
<path d="M5130 5153 c0 -20 87 -309 100 -332 5 -10 34 11 116 86 60 56 122
114 137 131 l29 30 -34 11 c-18 5 -96 27 -173 46 -77 20 -148 39 -157 41 -13
4 -18 0 -18 -13z"/>
<path d="M4964 5032 c-135 -122 -143 -131 -123 -142 19 -12 341 -91 347 -85 7
7 -94 319 -105 322 -5 2 -59 -41 -119 -95z"/>
<path d="M5600 5037 c0 -7 25 -89 57 -184 44 -132 60 -170 70 -164 8 4 70 63
139 131 81 81 120 126 112 131 -7 3 -89 25 -183 48 -93 23 -176 44 -182 46 -7
3 -13 -1 -13 -8z"/>
<path d="M5408 4912 l-133 -131 30 -11 c56 -21 345 -93 351 -87 7 7 -93 338
-106 351 -5 5 -64 -45 -142 -122z"/>
<path d="M5911 4809 c-96 -88 -141 -137 -141 -153 0 -12 347 -102 356 -93 3 3
-9 59 -26 124 -50 189 -61 223 -71 223 -5 0 -58 -45 -118 -101z"/>
<path d="M4820 4831 c0 -5 71 -176 159 -378 218 -506 212 -493 223 -493 6 0 9
141 6 385 -2 317 -5 387 -17 394 -8 5 -86 28 -175 51 -89 23 -169 44 -178 46
-10 3 -18 1 -18 -5z"/>
<path d="M5250 4508 c0 -320 11 -569 24 -565 20 6 403 663 393 674 -5 4 -282
80 -389 107 l-28 6 0 -222z"/>
<path d="M5682 4553 c-32 -52 -278 -471 -331 -566 -18 -32 -31 -61 -27 -64 3
-3 56 32 118 79 159 120 477 361 577 437 64 49 80 66 68 72 -18 11 -334 89
-358 89 -9 0 -30 -21 -47 -47z"/>
<path d="M4745 4506 c-159 -44 -312 -111 -438 -192 -78 -51 -187 -153 -186
-174 0 -8 43 -48 95 -88 l95 -72 43 30 c75 51 248 138 330 165 43 14 135 34
205 43 113 16 126 20 123 37 -2 10 -31 76 -64 147 -71 148 -62 144 -203 104z"/>
<path d="M2965 4354 c-340 -61 -644 -232 -871 -492 -188 -214 -299 -445 -352
-727 -24 -130 -23 -417 2 -550 75 -400 304 -745 650 -977 194 -129 391 -204
635 -239 116 -16 398 -6 516 19 588 126 1045 586 1172 1182 25 119 25 467 0
589 -67 317 -226 599 -459 816 -211 196 -504 340 -771 379 -132 20 -411 20
-522 0z m505 -230 c457 -97 829 -431 974 -875 46 -143 60 -231 60 -389 0 -156
-13 -243 -60 -390 -64 -203 -158 -353 -319 -516 -123 -124 -220 -194 -369
-265 -198 -94 -358 -125 -606 -116 -167 6 -287 31 -430 91 -390 165 -685 522
-776 941 -23 103 -23 406 -1 503 114 493 452 855 934 998 141 42 437 51 593
18z"/>
<path d="M3922 3877 c-43 -53 -126 -275 -157 -417 -22 -101 -31 -380 -16 -493
38 -281 160 -537 349 -730 37 -37 82 -78 101 -89 l34 -22 23 29 c13 16 35 50
49 76 l26 48 -52 48 c-126 118 -235 303 -284 483 -32 119 -44 316 -26 439 15
103 57 244 111 376 l40 100 -77 73 c-92 86 -107 96 -121 79z"/>
<path d="M5763 4187 c-73 -45 -132 -85 -133 -88 0 -3 37 -32 82 -64 107 -77
221 -185 270 -259 22 -32 62 -104 89 -160 147 -309 143 -668 -13 -981 -105
-211 -314 -414 -531 -515 -161 -76 -355 -109 -516 -90 -131 16 -279 49 -347
76 -33 13 -63 24 -66 24 -6 0 -101 -150 -97 -154 18 -14 165 -63 263 -88 105
-26 144 -31 297 -35 141 -4 193 -2 260 11 417 84 777 364 964 751 94 193 135
374 135 595 0 280 -78 539 -230 766 -56 83 -258 294 -281 294 -8 0 -73 -37
-146 -83z"/>
</g>
</svg>
